<svg xmlns="http://www.w3.org/2000/svg" xmlns:xlink="http://www.w3.org/1999/xlink" version="1.1" x="0px" y="0px" viewBox="0 0 491.5 614.375" style="enable-background:new 0 0 491.5 491.5;" xml:space="preserve"><style type="text/css">
	.st0{fill-rule:evenodd;clip-rule:evenodd;}
</style><g><g><path class="st0" d="M408.4,462.7H83.1c-2.6,0-4.7-2.1-4.7-4.7l0-76.8c0-34,32-46,57.7-55.5    c6.8-2.5,13.2-4.9,18.3-7.5c4.3-2.2,9-4.2,13.9-6.4c17.8-7.9,37.9-16.8,37.9-29.3l0-15.5c0-2.6,2.1-4.7,4.7-4.7    c2.6,0,4.7,2.1,4.7,4.7l0,15.5c0,18.7-23.2,29-43.6,38c-4.8,2.1-9.4,4.1-13.5,6.2c-5.6,2.8-12.2,5.2-19.2,7.8    c-24.2,9-51.6,19.2-51.6,46.7v72.1h315.8v-72.1c0-27.4-27.4-37.7-51.6-46.7c-7-2.6-13.6-5.1-19.2-7.8c-4.1-2.1-8.7-4.1-13.5-6.2    c-20.4-9-43.6-19.3-43.6-38l0-15.5c0-2.6,2.1-4.7,4.7-4.7c2.6,0,4.7,2.1,4.7,4.7l0,15.5c0,12.6,20.2,21.5,37.9,29.3    c4.9,2.2,9.6,4.2,13.9,6.4c5.1,2.5,11.5,4.9,18.3,7.5c25.7,9.6,57.7,21.5,57.7,55.5V458C413.1,460.6,411,462.7,408.4,462.7    L408.4,462.7z"/><path class="st0" d="M137.1,462.7c-2.6,0-4.7-2.1-4.7-4.7v-62.4c0-2.6,2.1-4.7,4.7-4.7c2.6,0,4.7,2.1,4.7,4.7    l0,62.4C141.9,460.6,139.7,462.7,137.1,462.7z"/><path class="st0" d="M354.4,462.7c-2.6,0-4.7-2.1-4.7-4.7v-62.4c0-2.6,2.1-4.7,4.7-4.7c2.6,0,4.7,2.1,4.7,4.7    l0,62.4C359.1,460.6,357,462.7,354.4,462.7L354.4,462.7z"/><path class="st0" d="M245.8,230.9c-6.7,0-13.4-1.9-20.1-5.7c-2.3-1.3-3.1-4.2-1.8-6.5c1.3-2.3,4.2-3.1,6.5-1.8    c10.4,5.9,20.5,5.9,30.9,0c2.3-1.3,5.2-0.5,6.5,1.8c1.3,2.3,0.5,5.2-1.8,6.5C259.2,229,252.5,230.9,245.8,230.9z"/><path class="st0" d="M207.1,185.6c-2.6,0-4.7-2.1-4.7-4.7l0-13c0-2.6,2.1-4.7,4.7-4.7c2.6,0,4.7,2.1,4.7,4.7v13    C211.8,183.5,209.7,185.6,207.1,185.6L207.1,185.6z"/><path class="st0" d="M284.5,185.6c-2.6,0-4.7-2.1-4.7-4.7l0-13c0-2.6,2.1-4.7,4.7-4.7c2.6,0,4.7,2.1,4.7,4.7v13    C289.2,183.5,287.1,185.6,284.5,185.6L284.5,185.6z"/><path class="st0" d="M245.8,279.2c-49.2,0-89.2-40-89.2-89.2l0-46.2c0-2.6,2.1-4.7,4.7-4.7c2.6,0,4.7,2.1,4.7,4.7    l0,46.2c0,43.9,35.7,79.7,79.7,79.7c43.9,0,79.7-35.7,79.7-79.7v-42.3c0-2.6,2.1-4.7,4.7-4.7c2.6,0,4.7,2.1,4.7,4.7l0,42.3    C334.9,239.2,294.9,279.2,245.8,279.2L245.8,279.2z"/><path class="st0" d="M224.8,359.9c-9,0-16.2,7.3-16.2,16.2c0,17.9,18.4,37.3,37.2,56.2    c18.8-18.9,37.2-38.3,37.2-56.2c0-9-7.3-16.2-16.2-16.2c-7.7,0-11.8,3.2-16.7,13.1c-0.8,1.6-2.4,2.6-4.2,2.6c-1.8,0-3.4-1-4.2-2.6    C236.6,363.1,232.5,359.9,224.8,359.9L224.8,359.9z M245.8,443.8c-1.2,0-2.4-0.5-3.4-1.4c-21.3-21.3-43.3-43.3-43.3-66.3    c0-14.2,11.5-25.7,25.7-25.7c10.1,0,16.2,4.2,21,11.1c4.8-6.8,10.9-11.1,21-11.1c14.2,0,25.7,11.5,25.7,25.7    c0,22.9-22,45-43.3,66.3C248.2,443.3,247,443.8,245.8,443.8L245.8,443.8z"/><path class="st0" d="M303.8,289.2c-13,0-22.9-1.4-24-1.5c-2.6-0.4-4.4-2.8-4-5.4c0.4-2.6,2.8-4.4,5.4-4    c0.7,0.1,68.1,9.3,81.9-21.2c7-15.4,7.4-31,1.2-43.8c-0.3-0.7-0.5-1.5-0.5-2.2c0-0.4,1.1-38.8-10.1-79.1    c-14.8-52.9-43-83.7-83.7-91.6c-14.8-2.9-33.8-2.9-48.6,0c-40.8,7.9-68.9,38.8-83.7,91.8c-11.2,40.2-10.1,78.5-10.1,78.8    c0,0.8-0.1,1.5-0.5,2.2c-6.2,12.8-5.8,28.4,1.2,43.8c13.9,30.5,81.2,21.3,81.9,21.2c2.6-0.4,5,1.4,5.4,4c0.4,2.6-1.4,5-4,5.4    c-3.1,0.4-75.1,10.3-91.9-26.6c-8-17.6-8.6-35.6-1.6-50.8c-0.1-6.9-0.2-42.4,10.4-80.5c15.6-56,47.1-90.1,91-98.6    c15.8-3.1,36.3-3.1,52.2,0c43.9,8.5,75.4,42.6,91,98.6c10.6,38.1,10.6,73.6,10.4,80.5c7,15.2,6.4,33.2-1.6,50.8    C360.9,284.8,327.3,289.2,303.8,289.2L303.8,289.2z"/><path class="st0" d="M330.2,152.5C330.2,152.5,330.1,152.5,330.2,152.5c-20.9-0.3-36-5.5-45-15.6    c-4.7-5.2-6.7-10.7-7.6-15c-22.1,9.5-40.7,5.9-52.8,0.8c-7.6-3.2-13.6-7.2-17.5-10.4c-12.9,28.7-43.5,35.9-44.9,36.2    c-2.6,0.6-5.1-1-5.7-3.6c-0.6-2.6,1-5.1,3.6-5.7c0.4-0.1,31.4-7.5,40.4-36.5c0.5-1.6,1.8-2.8,3.5-3.2c1.7-0.4,3.4,0.2,4.5,1.4    c1.2,1.3,29.6,31.2,70.7,9.5c1.5-0.8,3.4-0.7,4.9,0.3c1.4,1,2.2,2.7,2.1,4.4c0,0.3-0.6,8.3,6,15.6c7.1,7.8,20.2,12,37.9,12.3    c2.6,0,4.7,2.2,4.7,4.8C334.9,150.4,332.8,152.5,330.2,152.5L330.2,152.5z"/><path class="st0" d="M245.8,342.2c-4.1,0-8.2-1.1-12-3.3l-47.5-27.2c-2.3-1.3-3.1-4.2-1.8-6.5    c1.3-2.3,4.2-3.1,6.5-1.8l47.5,27.2c4.7,2.7,9.9,2.7,14.6,0l47.5-27.2c2.3-1.3,5.2-0.5,6.5,1.8c1.3,2.3,0.5,5.2-1.8,6.5    l-47.5,27.2C254,341.1,249.9,342.2,245.8,342.2L245.8,342.2z"/></g></g><text x="0" y="506.5" fill="#000000" font-size="5px" font-weight="bold" font-family="'Helvetica Neue', Helvetica, Arial-Unicode, Arial, Sans-serif">Created by Maan Icons</text><text x="0" y="511.5" fill="#000000" font-size="5px" font-weight="bold" font-family="'Helvetica Neue', Helvetica, Arial-Unicode, Arial, Sans-serif">from the Noun Project</text></svg>