<svg xmlns="http://www.w3.org/2000/svg" xmlns:xlink="http://www.w3.org/1999/xlink" version="1.1" x="0px" y="0px" viewBox="0 0 100 125" enable-background="new 0 0 100 100" xml:space="preserve"><g><path fill="#000000" d="M72.6,21.9c-0.3-0.1-0.7,0.1-0.9,0.3c-0.9,1.1-1.8,1.8-2.7,2.6c-1.2,1-2.5,2-3.7,4.1   c-0.7,1.2-1.9,1.9-3.2,1.9c-1,0-1.9-0.5-2.2-1.1c-0.4-0.9,0.4-2.3,2-3.7c4.2-3.8,3.8-10,2.2-14.2c-0.8-2.1-1.7-3.2-2.6-3.2   c-0.4,0-0.9,0.2-1.1,0.9c-0.1,0.2-0.1,0.3-0.2,0.5c-0.5,1.7-1,3.2-6.5,5.6c-4,1.7-5.1,4.1-6,6C47,23,46.4,24.1,45,24.9   c-0.3,0.2-0.4,0.2-0.5,0.2c-0.1-0.2-0.4-0.9,0.1-3.6c0.3-1.7,0.8-3.3,0.8-3.3c0.1-0.4,0-0.8-0.3-1c-0.3-0.2-0.8-0.2-1.1,0   c-0.7,0.5-1.4,0.9-2,1.2c-2.4,1.3-3.6,2.2-4.4,6.9c-0.4,2.2-1.2,3.2-2.4,4.5c-1.6,1.8-3.6,4-5.1,9.9c-1.9,7.5,1.7,15.4,8.4,18.4   c3,1.3,6.1,2,9.3,2c0,0,0,0,0,0c5.3,0,10.4-1.9,14.6-5.5c5.2-4.4,6.4-9.5,7.2-13.2c0.5-2.3,0.9-4.1,2-5c4.6-4.2,1.8-13.4,1.7-13.8   C73.2,22.2,72.9,22,72.6,21.9z M48.1,54.3c-0.1,0.1-0.3,0.1-0.4,0.1h0c-0.1,0-0.3,0-0.4-0.1c-0.1,0-9.9-4.6-10.4-13.1   c0-0.2,0-0.5,0-0.7c0-3.3,2.6-5.9,5.9-5.9c2.1,0,3.9,1.1,4.9,2.7c1.1-1.6,2.9-2.7,5-2.7c3.3,0,5.9,2.7,5.9,5.9   C58.6,49.5,48.2,54.3,48.1,54.3z"/><path fill="#000000" d="M75.1,7c-0.2-0.5-0.7-0.9-1.3-0.7c-0.5,0.1-0.9,0.6-0.9,1.1c0,0.2-0.2,1.5-2.1,2.7   c-2.8,1.7-2.1,5.2-1.4,6.7c0.2,0.4,0.6,0.7,1,0.7c0.1,0,0.2,0,0.2,0c2-0.5,3.5-1.5,4.3-3C76.6,11.3,75.1,7.2,75.1,7z"/><path fill="#000000" d="M31.9,22.3c0.2,0.1,0.3,0.1,0.5,0.1c0.4,0,0.8-0.2,1-0.6c0.1-0.2,2.6-4.6,0.2-7.3c-0.8-0.9-1-2.7-1.1-3.3   c0-0.5-0.3-1-0.8-1.1c-0.5-0.1-1,0.1-1.3,0.5c-1.8,3-2.3,5.7-1.6,7.9C29.7,21.3,31.8,22.3,31.9,22.3z"/><path fill="#000000" d="M71.7,69.5c-1-2-3.5-2.9-5.6-1.9l-6.1,2.7c0,0,0,0,0,0c-1.3,0.6-2.6,1-4,1.3c0.4-0.6,0.6-1.4,0.6-2.1   c0-2.5-2-4.4-4.4-4.4H40.5c-3.1,0-6.1,1.2-8.3,3.3l-6.8,6.3c-0.4,0.4-0.4,1-0.1,1.4c0.4,0.4,1,0.4,1.4,0.1l6.8-6.3   c1.9-1.8,4.4-2.7,7-2.7h11.6c1.3,0,2.4,1.1,2.4,2.4c0,1.3-1.1,2.4-2.4,2.4H44c-0.6,0-1,0.5-1,1c0,0.6,0.5,1,1,1H53   c2.7,0,5.5-0.6,7.9-1.8l6.1-2.7c0,0,0,0,0,0c1.1-0.5,2.4-0.1,2.9,1l0,0.1c0.3,0.6,0.3,1.2,0.1,1.8c-0.2,0.6-0.6,1.1-1.2,1.3   C67.9,74.1,66,75,64,75.9c-2,0.9-4.2,1.9-5.4,2.5c-2.4,1.2-5.1,1.8-7.8,1.7l-11.7-0.3c-1.6,0-3.1,0.6-4.1,1.8l-9.6,10.5   c-0.4,0.4-0.3,1,0.1,1.4c0.2,0.2,0.4,0.3,0.7,0.3c0.3,0,0.5-0.1,0.7-0.3l9.6-10.5c0.7-0.7,1.6-1.1,2.6-1.1l11.7,0.3   c3,0.1,6-0.6,8.7-1.9c1.2-0.6,3.3-1.6,5.3-2.5c2-0.9,3.9-1.8,5-2.3c1-0.5,1.8-1.4,2.2-2.5C72.4,71.8,72.3,70.6,71.7,69.5L71.7,69.5   z"/></g><text x="0" y="115" fill="#000000" font-size="5px" font-weight="bold" font-family="'Helvetica Neue', Helvetica, Arial-Unicode, Arial, Sans-serif">Created by HeadsOfBirds</text><text x="0" y="120" fill="#000000" font-size="5px" font-weight="bold" font-family="'Helvetica Neue', Helvetica, Arial-Unicode, Arial, Sans-serif">from the Noun Project</text></svg>