<svg xmlns="http://www.w3.org/2000/svg" xmlns:xlink="http://www.w3.org/1999/xlink" version="1.1" x="0px" y="0px" viewBox="0 0 530 662.5" style="enable-background:new 0 0 530 530;" xml:space="preserve"><g><g><path d="M480,10H50c-22.056,0-40,17.944-40,40v270c0,22.056,17.944,40,40,40h128.163    c-0.01,0.033-0.019,0.065-0.029,0.098c-2.246,7.645-5.041,17.157-1.16,26.491c5.809,13.964,22.565,17.717,28.229,23.36    c3.19,3.179,6.023,9.817,9.796,15.706V510c0,3.552,1.884,6.837,4.949,8.631s6.854,1.827,9.948,0.088L265,499l35.103,19.719    c3.074,1.726,6.86,1.719,9.948-0.088c3.065-1.794,4.949-5.079,4.949-8.631v-83.939c4.073-6.167,6.882-13.187,9.972-16.286    c6.14-6.164,22.492-9.704,28.159-23.441c3.637-8.816,1.277-17.397-1.318-26.333H480c22.056,0,40-17.944,40-40V50    C520,27.944,502.056,10,480,10z M341.118,300c-6.161-4.076-13.223-6.906-16.321-9.994c-6.167-6.143-9.704-22.492-23.44-28.159    c-13.734-5.664-27.807,3.432-36.478,3.441h-0.01c-8.023,0-22.507-9.144-36.479-3.336c-13.965,5.807-17.712,22.558-23.361,28.229    c-3.184,3.196-9.847,6.036-15.744,9.819H84.143L70,285.857V84.142L84.143,70h361.715L460,84.142v201.715L445.857,300H341.118z     M269.897,478.811c-3.041-1.709-6.754-1.709-9.795,0L235,492.913v-53.15c11.428,1.405,22.955-5.09,30.121-5.097h0.01    c6.765,0,18.111,6.486,29.869,5.055v53.192L269.897,478.811z M334.643,378.706c-1.041,2.523-5.961,5.248-10.302,7.652    c-4.469,2.476-9.533,5.281-13.537,9.299c-6.374,6.398-9.37,15.375-13.516,20.857c-0.016,0.019-0.03,0.04-0.045,0.06    c-1.078,1.416-2.18,2.491-3.312,2.962c-2.804,1.167-8.072-0.385-13.172-1.882c-5-1.47-10.169-2.988-15.629-2.988    c-0.01,0-0.021,0-0.03,0c-5.672,0.006-11.231,1.62-16.137,3.043c-4.766,1.384-10.167,2.953-12.691,1.91    c-2.523-1.041-5.248-5.961-7.652-10.301c-2.476-4.469-5.281-9.534-9.3-13.537c-3.875-3.86-8.621-6.434-13.21-8.921    c-4.672-2.533-9.503-5.151-10.668-7.952c-1.165-2.802,0.384-8.073,1.882-13.172c1.559-5.308,2.986-10.223,2.986-15.728    c0-0.003,0-0.006,0-0.009c0-5.459-1.576-11.008-3.042-16.062c-1.383-4.766-2.95-10.168-1.91-12.689    c1.041-2.523,5.961-5.249,10.302-7.653c4.469-2.475,9.534-5.28,13.537-9.299c3.86-3.875,6.434-8.621,8.921-13.21    c2.532-4.672,5.151-9.503,7.953-10.668c0.687-0.286,1.522-0.408,2.468-0.408c6.447,0,16.47,5.277,26.331,5.277    c0.01,0,0.021,0,0.03,0c5.673-0.006,11.233-1.619,16.14-3.043c4.767-1.383,10.169-2.951,12.689-1.91    c2.523,1.041,5.248,5.961,7.652,10.301c2.476,4.469,5.281,9.534,9.3,13.538c3.875,3.86,8.621,6.434,13.21,8.921    c4.672,2.532,9.503,5.151,10.668,7.952c1.165,2.802-0.384,8.073-1.882,13.172c-1.57,5.345-2.984,10.231-2.984,15.742    c0,5.462,1.611,11.131,3.04,16.055C334.115,370.782,335.683,376.184,334.643,378.706z M500,320c0,11.028-8.972,20-20,20H351.824    c1.916-6.516,3.756-13.091,2.921-20H450c2.652,0,5.195-1.054,7.071-2.929l20-20c1.875-1.876,2.929-4.419,2.929-7.071V80    c0-2.652-1.054-5.195-2.929-7.071l-20-20C455.196,51.054,452.652,50,450,50H80c-2.652,0-5.196,1.054-7.071,2.929l-20,20    C51.054,74.805,50,77.348,50,80v210c0,2.652,1.054,5.195,2.929,7.071l20,20C74.805,318.946,77.348,320,80,320h95.216    c-0.841,6.885,1.104,13.494,2.986,20H50c-11.028,0-20-8.972-20-20V50c0-11.028,8.972-20,20-20h430c11.028,0,20,8.972,20,20V320z"/><path d="M430,90H100c-5.522,0-10,4.477-10,10v50c0,5.523,4.478,10,10,10h330c5.522,0,10-4.477,10-10v-50    C440,94.477,435.522,90,430,90z M420,140H110v-30h310V140z"/><path d="M430,180H100c-5.522,0-10,4.477-10,10s4.478,10,10,10h330c5.522,0,10-4.477,10-10S435.522,180,430,180z"/><path d="M420,220H110c-5.522,0-10,4.477-10,10s4.478,10,10,10h310c5.522,0,10-4.477,10-10S425.522,220,420,220z"/><polygon points="329.689,349.878 329.689,349.877 329.689,349.877   "/><path d="M265,309.977c-22.056,0-40,17.944-40,40s17.944,40,40,40s40-17.944,40-40S287.056,309.977,265,309.977z     M265,369.977c-11.028,0-20-8.972-20-20s8.972-20,20-20s20,8.972,20,20S276.028,369.977,265,369.977z"/></g></g><text x="0" y="545" fill="#000000" font-size="5px" font-weight="bold" font-family="'Helvetica Neue', Helvetica, Arial-Unicode, Arial, Sans-serif">Created by Icogenix</text><text x="0" y="550" fill="#000000" font-size="5px" font-weight="bold" font-family="'Helvetica Neue', Helvetica, Arial-Unicode, Arial, Sans-serif">from the Noun Project</text></svg>