<svg xmlns="http://www.w3.org/2000/svg" data-name="EX Outline Business copy" viewBox="0 0 64 80" x="0px" y="0px"><title>finance-money-pay-coin</title><rect x="20" y="42.127" width="2" height="2"/><rect x="38" y="42.127" width="2" height="2"/><path d="M29,35.127V36.9a3.244,3.244,0,0,0-3,3.225v.75a3.254,3.254,0,0,0,3.25,3.25h1.5A1.252,1.252,0,0,1,32,45.377v.75a1.252,1.252,0,0,1-1.25,1.25h-1.5A1.252,1.252,0,0,1,28,46.127H26a3.245,3.245,0,0,0,3,3.225v1.775h2V49.352a3.245,3.245,0,0,0,3-3.225v-.75a3.254,3.254,0,0,0-3.25-3.25h-1.5A1.252,1.252,0,0,1,28,40.877v-.75a1.252,1.252,0,0,1,1.25-1.25h1.5A1.252,1.252,0,0,1,32,40.127h2A3.244,3.244,0,0,0,31,36.9V35.127Z"/><path d="M3.115,46.592A1,1,0,0,0,4,47.127h.017l2.594-.044C7.389,49.922,10.678,59,20.927,59q.647,0,1.333-.05a1,1,0,0,0,.065-1.987,12.656,12.656,0,0,1-7.7-4.836h4.664a13.922,13.922,0,0,0,14.873,4.356A2.973,2.973,0,0,0,36,57.127H53a3,3,0,0,0,3-3v-1a3,3,0,0,0-3-3H51.816a2.966,2.966,0,0,0,.184-1v-1a2.981,2.981,0,0,0-.78-2,2.981,2.981,0,0,0,.78-2v-1a2.981,2.981,0,0,0-.78-2,2.981,2.981,0,0,0,.78-2v-1a3,3,0,0,0-3-3H41.473a13.988,13.988,0,0,0-10.48-5.95c0-.017.007-.033.007-.05v-1a2.97,2.97,0,0,0-.692-1.894L37.046,19.5l7.3,6.385a1,1,0,0,0,1.4-.077L55,15.7V18h2V13a1,1,0,0,0-1-1H51v2h2.843l-8.92,9.73-7.265-6.356a1,1,0,0,0-1.365.046l-5.331,5.331a2.979,2.979,0,0,0-.742-1.624,2.981,2.981,0,0,0,.78-2v-1a3,3,0,0,0-3-3H11a3,3,0,0,0-3,3v1a2.981,2.981,0,0,0,.78,2,2.981,2.981,0,0,0-.78,2v1a2.981,2.981,0,0,0,.78,2,2.981,2.981,0,0,0-.78,2v1a2.981,2.981,0,0,0,.78,2,2.981,2.981,0,0,0-.78,2v1a2.981,2.981,0,0,0,.78,2,2.981,2.981,0,0,0-.78,2v.68L3.187,45.546A1,1,0,0,0,3.115,46.592Zm10.272,3.535a15.4,15.4,0,0,1-1.133-3H16.59a13.859,13.859,0,0,0,1.3,3ZM10,38.127a1,1,0,0,1,1-1h6.37a13.86,13.86,0,0,0-1.038,3H11.173L10,38.758Zm0-4v-1a1,1,0,0,1,1-1H21.368a14.093,14.093,0,0,0-2.841,3H11A1,1,0,0,1,10,34.127Zm0-5v-1a1,1,0,0,1,1-1H28a1,1,0,0,1,1,1v1c0,.017-.006.034-.007.051a13.882,13.882,0,0,0-4.159.949H11A1,1,0,0,1,10,29.127Zm0-5v-1a1,1,0,0,1,1-1H28a1,1,0,0,1,1,1v1a1,1,0,0,1-1,1H11A1,1,0,0,1,10,24.127Zm6.051,18c-.024.332-.051.662-.051,1a13.884,13.884,0,0,0,.16,2h-.7l-2.571-3ZM54,53.127v1a1,1,0,0,1-1,1H36a1,1,0,0,1-1-1v-1a1,1,0,0,1,1-1H53A1,1,0,0,1,54,53.127Zm-11.883-3a13.719,13.719,0,0,0,1.3-3H49a1,1,0,0,1,1,1v1a1,1,0,0,1-1,1Zm1.832-8H49a1,1,0,0,1,1,1v1a1,1,0,0,1-1,1H43.85a14.246,14.246,0,0,0,.15-2C44,42.789,43.973,42.459,43.949,42.127Zm5.051-5a1,1,0,0,1,1,1v1a1,1,0,0,1-1,1H43.668a13.86,13.86,0,0,0-1.038-3Zm-7,6a11.867,11.867,0,0,1-2.265,7H36a3,3,0,0,0-3,3v1a3,3,0,0,0,.061.6A12,12,0,1,1,42,43.127Zm-32-25a1,1,0,0,1,1-1H28a1,1,0,0,1,1,1v1a1,1,0,0,1-1,1H11a1,1,0,0,1-1-1Zm-.929,22.62,3.755,4.38H11a1,1,0,0,0-.981,1.19,15.7,15.7,0,0,0,5.369,9.449c-5.645-2.816-6.942-9.5-7.009-9.874a1,1,0,0,0-.984-.823H7.378l-1.411.025Z"/><text x="0" y="79" fill="#000000" font-size="5px" font-weight="bold" font-family="'Helvetica Neue', Helvetica, Arial-Unicode, Arial, Sans-serif">Created by Ninejipjip</text><text x="0" y="84" fill="#000000" font-size="5px" font-weight="bold" font-family="'Helvetica Neue', Helvetica, Arial-Unicode, Arial, Sans-serif">from the Noun Project</text></svg>