<svg xmlns="http://www.w3.org/2000/svg" xmlns:xlink="http://www.w3.org/1999/xlink" version="1.1" x="0px" y="0px" viewBox="0 0 128 160" style="enable-background:new 0 0 128 128;" xml:space="preserve"><g><path d="M70.7,120.8c-0.3-0.6-0.7-1.1-1.1-1.6c-0.3-0.4-0.7-0.9-0.8-1.3c-1.2-2.9-0.7-6.8-0.1-9.5c1.4-7.8,1.1-9.9-1-15.2   c-1.8-4.5-5.3-8.5-10-11.5l0.9-2.6c0.7-1.8,1.4-4,1.7-4.8c0.1-0.3,0.3-0.6,0.5-1.1l0.1-0.2c0.2-0.4,0.4-0.9,0.6-1.4   c0.5-1.5,0.4-3-0.4-4.2c-1-1.5-2.9-2.2-4.9-1.7c-0.6,0.1-1.1,0.3-1.6,0.5c0,0-0.1-0.1-0.1-0.2c-1.2-1.8-2.8-2.7-4.7-2.7   c-0.1,0-0.2,0-0.4,0c-1.4,0.1-3.3,0.7-4.6,2.9l-0.1,0.1c-0.1,0.2-0.2,0.4-0.3,0.7h-1.5c-2.2,0-4.3,0.3-5.5,2.3   c-0.7,1.3-0.8,2.9-0.1,4.4c0.3,0.6,3,4.8,4.4,6.9c-0.6,0.4-1.1,0.8-1.7,1.2c-0.2,0.1-0.4,0.3-0.5,0.4c-2.9,2-5.3,4.3-7,6.7   c-5.5,7.8-4.6,14-3.5,19.6c0.1,0.3,0.1,0.6,0.2,0.9c0.2,1.2,0.5,2.4,0.6,3.6c0.1,1.1-0.2,2.3-0.7,3.6c-0.2,0.4-0.5,0.8-0.8,1.3   c-0.3,0.4-0.6,0.9-0.9,1.4c-0.5,0.8-0.5,1.8-0.1,2.7c0.4,0.9,1.2,1.5,2.1,1.7c1.7,0.4,3.4,0.2,5,0.1c0.5,0,0.9-0.1,1.3-0.1   c1.9-0.1,3.9,0.4,5.9,0.9c1,0.3,2.1,0.6,3.2,0.8c1.2,0.2,2.5,0.3,3.7,0.3c2.9,0,5.7-0.5,8.4-1c0.3,0,0.6-0.1,0.8-0.2   c0.3-0.1,0.6-0.1,0.9-0.2c1.5-0.3,3-0.6,4.5-0.6h0.3c0.7,0,2.1-0.1,3.3-0.1c2.4-0.1,3.3-0.2,3.8-1.1C71,122,71,121.3,70.7,120.8z    M57.6,109.8c-0.4,2.9-2.1,5.1-5.1,6.3c-0.5,0.2-1.1,0.4-1.7,0.6c-0.2,0-0.3,0.1-0.5,0.1v4.7h-3.8v-4.5c-0.2,0-0.4,0-0.6-0.1   c-0.7-0.1-1.4-0.2-2.1-0.3c-1.3-0.3-2.6-0.7-3.7-1.4c-0.4-0.3-0.6-0.6-0.4-1.1c0.2-0.6,0.4-1.2,0.6-1.8l0.4-1.2l1.1,0.6   c2.1,1.1,4,1.6,6,1.5c0.8,0,1.6-0.2,2.3-0.5c1.4-0.6,2.4-1.7,2.6-3.1c0.2-1.5-0.4-2.9-1.7-3.9c-1.1-0.9-2.3-1.4-3.8-2   c-2.1-0.8-3.6-1.7-4.8-2.7c-1.6-1.3-2.5-3.3-2.5-5.5c0-2.3,1.1-4.4,2.8-5.8c1.1-0.9,2.4-1.5,3.9-1.8l0.3-0.1v-4.6h3.6v4.3   c0.2,0,0.5,0.1,0.7,0.1c0.8,0.1,1.5,0.2,2.3,0.4c0.7,0.2,1.3,0.5,2,0.8l0.5,0.2c0.3,0.1,0.5,0.6,0.4,0.9c-0.3,0.7-0.5,1.4-0.8,2.1   l-0.4,1.1L54.8,93c-1.1-0.6-2.2-1-3.4-1.2c-1.4-0.2-2.8-0.4-4.2,0.1c-1.4,0.5-2.2,1.4-2.4,2.7c-0.2,1,0,2.4,1.4,3.3   c1,0.6,2.1,1.2,3.5,1.8c1.5,0.7,3.2,1.4,4.6,2.4C56.9,104,58.1,106.6,57.6,109.8z"/><path d="M106.9,4.1c-0.8,5.9-2.2,11.6-4.3,17c-2.2,5.6-5.2,10.9-9.3,15.7c-5.1,5.9-11.6,8.9-19.3,9.5h-0.1   c-2.5,0.2-5.1,0.2-7.6,0.2c-2,0-3.8,0-5.8-0.2c-0.3,0-0.7-0.1-1.1-0.2c-0.2,0-0.3-0.2-0.2-0.4c1.7-2.1,10.3-13.1,15.5-18.1   c5.7-5.5,11.7-10.8,17-15.6c-4.1,2.5-8,5.3-11.8,8.2c-3.8,3-7.5,6.2-11.1,9.5C67,31.5,65,33.2,63.5,35c-1.3,1.6-2.7,3-4,4.6   c-1.3,1.5-2.6,3.2-3.5,5c-1.8,3.5-2.7,7.5-3.2,11.4c-0.2,1.5-0.1,1-0.2,2.5c0,0.4-0.1,0.8-0.2,1.2c-0.8-0.2-1.7-0.4-2.6-0.4   c-0.2,0-0.5,0-0.7,0c-0.7,0-1.4,0.2-2.1,0.4c0.2-2.9,1.1-4.4,0.7-7.7c-0.1-1.1-0.3-2.2-0.5-3.2c-0.3-1.4-0.7-2.6-1.3-3.9   c-2.7,0.5-5.3,0.5-8,0.2c-3.6-0.4-6.9-1.5-10-3.5c-3.1-2-4.8-5-5.7-8.5c-1.2-4.4-1.2-9-0.9-13.5c0.4-4.5,0.8-8.9,1.2-13.4   c0.1-0.9,0.7-1.4,1.6-1.2c1.1,0.2,2.1,0.5,3.2,0.8c3.9,1.2,7.8,2.6,11.3,4.8c3.6,2.2,6.1,5.2,7.6,9.2c2.3,6.2,3,12.5,2.1,19   c-0.1,1-0.5,1.9-0.5,2.9c0.1,0.9,0.6,1.7,0.9,2.5c0.2,0.5,0.5,1.2,0.8,1.8c0.2,0.4,0.3,0.9,0.5,1.3c0.1-0.2,0.2-0.4,0.2-0.6   c0.2-0.6,0.4-1.2,0.6-1.7l0,0l0,0c1.4-2.8,2.9-5.2,4.5-7.1c0.2-0.2,0.2-0.5,0.2-0.9c-1.4-2.2-1.4-5.8-1.4-8.3c0-3,0.8-5.8,2.4-8.4   c2.3-3.7,5.8-6.7,9.6-8.7c5.6-3,11.9-4.5,18-6.2c0.9-0.2,1.8-0.5,2.7-0.7c5.4-1.2,10.8-1.8,16.3-2.2c0.6,0,1.3-0.1,1.9-0.1   C106.4,2.4,107.1,3.1,106.9,4.1z"/></g><text x="0" y="143" fill="#000000" font-size="5px" font-weight="bold" font-family="'Helvetica Neue', Helvetica, Arial-Unicode, Arial, Sans-serif">Created by Delwar Hossain</text><text x="0" y="148" fill="#000000" font-size="5px" font-weight="bold" font-family="'Helvetica Neue', Helvetica, Arial-Unicode, Arial, Sans-serif">from the Noun Project</text></svg>