<svg xmlns="http://www.w3.org/2000/svg" xmlns:xlink="http://www.w3.org/1999/xlink" version="1.1" x="0px" y="0px" viewBox="0 0 98 122.5" style="enable-background:new 0 0 98 98;" xml:space="preserve"><style type="text/css">
	.st0{fill-rule:evenodd;clip-rule:evenodd;}
</style><path class="st0" d="M64.176,20.096c0.829,0,1.5-0.671,1.5-1.5v-0.915l9.143,0c0.952,0,1.727,0.774,1.727,1.727v65.889  c0,0.952-0.774,1.726-1.727,1.726l-51.637,0c-0.952,0-1.727-0.774-1.727-1.726v-65.89c0-0.952,0.774-1.727,1.727-1.727h9.143v0.915  c0,0.829,0.671,1.5,1.5,1.5L64.176,20.096L64.176,20.096L64.176,20.096z M39.621,78.832L39.621,78.832l0-3.55l-1.989,1.808  c-0.277,0.251-0.637,0.389-1.009,0.389c-0.047,0-0.092-0.002-0.138-0.006c-0.418-0.039-0.801-0.252-1.056-0.587l-2.907-3.83  c-0.5-0.659-0.372-1.6,0.287-2.101c0.659-0.502,1.599-0.372,2.101,0.287l1.918,2.525l2.795-2.54v-2.351h-9.955v9.955H39.621  L39.621,78.832z M46.356,69.16c0.613-0.557,0.658-1.506,0.101-2.119c-0.557-0.613-1.506-0.658-2.119-0.101l-1.719,1.562v-1.125  c0-0.828-0.671-1.5-1.5-1.5H28.166c-0.829,0-1.5,0.671-1.5,1.5v12.953c0,0.828,0.671,1.5,1.5,1.5l12.953,0  c0.829,0,1.5-0.671,1.5-1.5v-7.775L46.356,69.16L46.356,69.16z M29.667,49.373h-0.001v9.955h9.956v-3.55l-1.989,1.808  c-0.277,0.252-0.637,0.39-1.009,0.39c-0.047,0-0.092-0.002-0.138-0.006c-0.418-0.039-0.802-0.252-1.056-0.587l-2.907-3.83  c-0.501-0.659-0.372-1.601,0.287-2.101c0.659-0.5,1.6-0.372,2.101,0.287l1.917,2.525l2.795-2.54v-2.352H29.667L29.667,49.373z   M28.167,62.328h12.953c0.829,0,1.5-0.671,1.5-1.5v-7.775l3.735-3.396c0.613-0.557,0.658-1.506,0.101-2.119  c-0.557-0.613-1.506-0.658-2.119-0.101L42.621,49v-1.125c0-0.829-0.671-1.5-1.5-1.5l-12.953,0c-0.829,0-1.5,0.671-1.5,1.5v12.954  C26.668,61.656,27.339,62.328,28.167,62.328L28.167,62.328z M29.667,29.871h-0.001v9.955h9.956v-3.55l-1.989,1.808  c-0.277,0.252-0.637,0.389-1.009,0.389c-0.047,0-0.092-0.002-0.138-0.006c-0.418-0.039-0.802-0.252-1.056-0.587l-2.907-3.83  c-0.501-0.659-0.372-1.601,0.287-2.101c0.659-0.502,1.6-0.372,2.101,0.287l1.917,2.525l2.795-2.54v-2.352H29.667L29.667,29.871z   M26.668,28.371v12.953c0,0.829,0.67,1.5,1.5,1.5h12.953c0.829,0,1.5-0.671,1.5-1.5v-7.776l3.735-3.396  c0.613-0.557,0.658-1.506,0.101-2.119c-0.557-0.613-1.506-0.658-2.119-0.101l-1.719,1.562v-1.125c0-0.829-0.671-1.5-1.5-1.5H28.166  C27.339,26.872,26.668,27.543,26.668,28.371L26.668,28.371z M50.296,29.661c0,0.829,0.671,1.5,1.5,1.5h18.037  c0.829,0,1.5-0.671,1.5-1.5c0-0.829-0.67-1.5-1.5-1.5H51.796C50.967,28.161,50.296,28.832,50.296,29.661L50.296,29.661z   M47.717,41.536h22.117c0.829,0,1.5-0.671,1.5-1.5c0-0.829-0.671-1.5-1.5-1.5l-22.117,0c-0.829,0-1.5,0.67-1.5,1.5  C46.217,40.865,46.889,41.536,47.717,41.536L47.717,41.536z M71.333,49.164c0-0.829-0.67-1.5-1.5-1.5l-18.037,0  c-0.829,0-1.5,0.67-1.5,1.5c0,0.829,0.671,1.5,1.5,1.5l18.037,0C70.662,50.663,71.333,49.992,71.333,49.164L71.333,49.164z   M71.333,59.539c0-0.829-0.67-1.5-1.5-1.5l-22.116,0c-0.829,0-1.5,0.671-1.5,1.5s0.671,1.5,1.5,1.5l22.117,0  C70.662,61.039,71.333,60.368,71.333,59.539L71.333,59.539z M71.333,68.667c0-0.828-0.67-1.5-1.5-1.5l-18.037,0  c-0.829,0-1.5,0.671-1.5,1.5c0,0.829,0.671,1.5,1.5,1.5l18.037,0C70.662,70.167,71.333,69.495,71.333,68.667L71.333,68.667z   M71.333,79.043c0-0.828-0.67-1.5-1.5-1.5H47.717c-0.829,0-1.5,0.671-1.5,1.5c0,0.829,0.671,1.5,1.5,1.5l22.117,0  C70.662,80.542,71.333,79.872,71.333,79.043z M82.007,19.407c0-3.964-3.225-7.188-7.188-7.188l-9.143,0v2.463h9.143  c2.606,0,4.725,2.12,4.725,4.725v65.889c0,2.605-2.12,4.725-4.725,4.725H23.182c-2.606,0-4.725-2.12-4.725-4.725V19.407  c0-2.606,2.12-4.725,4.725-4.725l9.143,0v-2.463h-9.144c-3.963,0-7.188,3.225-7.188,7.188l0,65.89c0,3.964,3.225,7.189,7.188,7.189  h51.636c3.964,0,7.188-3.224,7.188-7.189L82.007,19.407z M35.324,17.096h27.353V9.778h-6.724c-0.725,0-1.346-0.518-1.476-1.231  C54.207,7.056,52.084,5.514,49,5.514c-3.084,0-5.207,1.543-5.477,3.033c-0.13,0.713-0.751,1.231-1.476,1.231h-6.724V17.096z"/><text x="0" y="113" fill="#000000" font-size="5px" font-weight="bold" font-family="'Helvetica Neue', Helvetica, Arial-Unicode, Arial, Sans-serif">Created by Good Father</text><text x="0" y="118" fill="#000000" font-size="5px" font-weight="bold" font-family="'Helvetica Neue', Helvetica, Arial-Unicode, Arial, Sans-serif">from the Noun Project</text></svg>