<svg xmlns="http://www.w3.org/2000/svg" xmlns:xlink="http://www.w3.org/1999/xlink" version="1.1" x="0px" y="0px" viewBox="0 0 100 125" style="enable-background:new 0 0 100 100;" xml:space="preserve"><style type="text/css">
	.st0{fill:none;}
	.st1{fill:#010202;}
</style><polygon class="st0" points="37.5,25.5 42,19 38.9,19 "/><polygon class="st0" points="35.3,14.9 31.9,14.9 33.3,17 "/><polygon class="st0" points="33.8,18 37.6,18 35.8,15.8 33.8,18 "/><polygon class="st0" points="39.1,18 39.1,18 42.1,18 40.7,15.6 38.7,17.9 "/><polygon class="st0" points="40.1,14.9 36.4,14.9 38.1,17.1 "/><path class="st0" d="M46.3,66.3c0.9,3.4,3,6.4,6.1,8.6c7.1,5,17,3.3,22-3.8s3.3-17-3.8-22c-4-2.8-8.9-3.5-13.3-2.3  c0,0.2,0,0.5,0,0.7C57.3,55.6,52.8,62.6,46.3,66.3z"/><path class="st0" d="M51.5,49.8c-1.1,0.9-2.1,1.9-3,3.2c-1.5,2.1-2.4,4.5-2.7,6.9C48.8,57.3,50.9,53.8,51.5,49.8z"/><path class="st0" d="M43.7,49.5c2-2.8,4.5-5,7.3-6.5c-2-6.5-8-11.2-15.1-11.2c-8.7,0-15.8,7.1-15.8,15.8s7.1,15.8,15.8,15.8  c1.3,0,2.6-0.2,3.9-0.5C39.6,58.2,40.9,53.5,43.7,49.5z"/><polygon class="st0" points="34,19 35.4,25.5 36.5,25.5 37.8,19 "/><polygon class="st0" points="72.8,35.2 72.7,43.1 72.8,43.1 75.5,37 "/><polygon class="st0" points="76,33.2 73.3,34.3 75.9,36.1 "/><polygon class="st0" points="79.6,36 76.7,36.7 76.7,36.7 79.8,38.9 "/><polygon class="st0" points="76.3,37.6 73.6,43.7 74.6,44.4 79.4,39.8 "/><polygon class="st0" points="75.4,44.9 82.8,42.2 80.2,40.4 "/><polygon class="st0" points="77,33 76.9,35.6 79.8,35 "/><polygon class="st0" points="81,39.7 81,39.7 83.5,41.5 83.7,38.7 80.8,39.4 "/><polygon class="st0" points="31.2,15.6 29.7,18 32.8,18 "/><polygon class="st0" points="34.3,25.5 33,19 29.7,19 34.2,25.5 "/><polygon class="st0" points="83.7,37.7 80.6,35.6 80.8,38.4 "/><path class="st1" d="M84.9,37.4l-7.9-5.6l-5.1,2.1l-0.1,9.2c-4.8-2.7-10.3-3.3-15.4-2.1c-2.5-7.9-9.5-13.8-18-14.8l5.2-7.6l-2.6-4.7  h-9.7l-3,4.7l5.2,7.6c-10.8,1.2-19.2,10.3-19.2,21.4c0,11.9,9.7,21.5,21.5,21.5c1.7,0,3.4-0.2,5-0.6c1.4,4.3,4.1,8.3,8.1,11.1  c9.7,6.8,23.1,4.5,30-5.2c6.3-9,4.8-21.2-3.2-28.4l8.7-3.2L84.9,37.4z M83.7,37.7l-2.9,0.7l-0.2-2.8L83.7,37.7z M77,33l2.8,2  l-2.9,0.6L77,33z M76.7,36.7l2.9-0.6l0.2,2.8L76.7,36.7L76.7,36.7z M79.4,39.8l-4.8,4.5l-0.9-0.7l2.7-6.1L79.4,39.8z M76,33.2  l-0.1,2.9l-2.5-1.8L76,33.2z M72.8,35.2l2.7,1.9l-2.7,6.1l-0.1-0.1L72.8,35.2z M37.5,25.5l1.3-6.5H42L37.5,25.5z M36.5,25.5h-1.2  L34,19h3.8L36.5,25.5z M42.1,18h-3l0-0.1l-0.3-0.1l2-2.3L42.1,18z M40.1,14.9l-2,2.2l-1.8-2.2H40.1z M37.6,18h-3.8l0,0l2-2.2  L37.6,18z M35.3,14.9l-2,2.2l-1.4-2.2H35.3z M31.2,15.6l1.6,2.4h-3.1L31.2,15.6z M29.7,19H33l1.3,6.5h-0.1L29.7,19z M40.5,67.5  C39,67.8,37.4,68,35.8,68c-11.3,0-20.5-9.2-20.5-20.5S24.4,27,35.8,27c9.1,0,16.9,6,19.5,14.3c-1.2,0.3-2.3,0.8-3.4,1.3  c-2.1-6.8-8.5-11.8-16-11.8c-9.2,0-16.8,7.5-16.8,16.8c0,9.2,7.5,16.8,16.8,16.8c1.4,0,2.7-0.2,3.9-0.5c0.3-0.1,0.7-0.2,1-0.3  c1.4-0.4,2.6-1,3.8-1.7c0.4-0.2,0.7-0.4,1-0.7c3.9-2.8,6.5-7.2,6.9-12.2c1.1-0.8,2.4-1.4,3.6-1.8c0,0.1,0,0.2,0,0.4  c0,7.6-4.1,14.2-10.3,17.7c-0.3,0.2-0.6,0.3-0.9,0.5c-1.2,0.6-2.4,1.1-3.6,1.4C41.2,67.3,40.8,67.4,40.5,67.5z M39.8,62.8  c-1.2,0.3-2.5,0.5-3.9,0.5c-8.7,0-15.8-7.1-15.8-15.8s7.1-15.8,15.8-15.8C43,31.8,49.1,36.5,51,43c-2.8,1.5-5.3,3.7-7.3,6.5  C40.9,53.5,39.6,58.2,39.8,62.8z M45.8,59.8c0.3-2.4,1.2-4.8,2.7-6.9c0.9-1.2,1.9-2.3,3-3.2C50.9,53.8,48.8,57.3,45.8,59.8z   M57.2,46.8c4.4-1.2,9.3-0.5,13.3,2.3c7.1,5,8.8,14.9,3.8,22s-14.9,8.8-22,3.8c-3.1-2.2-5.1-5.2-6.1-8.6c6.6-3.7,11-10.7,11-18.8  C57.3,47.3,57.3,47.1,57.2,46.8z M78,73.7c-6.5,9.2-19.4,11.4-28.6,4.9c-3.8-2.7-6.4-6.4-7.7-10.5c1.2-0.4,2.4-0.8,3.6-1.4  c1,3.5,3.2,6.7,6.4,9c7.5,5.3,18,3.5,23.4-4c5.3-7.5,3.5-18-4-23.4c-4.2-3-9.3-3.7-13.9-2.5c-0.3,0.1-0.7,0.2-1,0.3  c-1.2,0.4-2.4,0.9-3.5,1.6c-0.4,0.2-0.7,0.5-1,0.7c-1.5,1.1-2.8,2.4-3.9,3.9c-1.8,2.5-2.8,5.4-3,8.3c-1.2,0.8-2.5,1.5-3.9,1.9  c-0.1-4.3,1.1-8.7,3.7-12.5c1.8-2.6,4.2-4.6,6.8-6.1c0.3-0.2,0.6-0.3,0.9-0.5c1.1-0.5,2.2-1,3.4-1.3c0.3-0.1,0.7-0.2,1-0.2  c5.5-1.3,11.6-0.4,16.6,3.2C82.4,51.7,84.6,64.5,78,73.7z M75.4,44.9l4.8-4.5l2.6,1.8L75.4,44.9z M83.5,41.5L81,39.7l0,0l-0.2-0.2  l2.9-0.7L83.5,41.5z"/><text x="0" y="115" fill="#000000" font-size="5px" font-weight="bold" font-family="'Helvetica Neue', Helvetica, Arial-Unicode, Arial, Sans-serif">Created by Myly</text><text x="0" y="120" fill="#000000" font-size="5px" font-weight="bold" font-family="'Helvetica Neue', Helvetica, Arial-Unicode, Arial, Sans-serif">from the Noun Project</text></svg>