<svg xmlns="http://www.w3.org/2000/svg" data-name="Layer 1" viewBox="0 0 100 125" x="0px" y="0px"><defs><style>.cls-1{fill-rule:evenodd;}</style></defs><path class="cls-1" d="M58.343,36.2a3.381,3.381,0,1,0,.99,2.39,3.367,3.367,0,0,0-.99-2.39ZM79.805,17.94,77.626,13.3l-2.138,4.551a1.128,1.128,0,0,1-.922.73l-5.076.638,3.7,3.471a1.127,1.127,0,0,1,.369,1.064L72.6,28.786l4.475-2.463a1.124,1.124,0,0,1,1.1-.006l4.486,2.469-.962-5.028h0a1.129,1.129,0,0,1,.335-1.033l3.734-3.5-5.075-.638v0a1.124,1.124,0,0,1-.883-.641Zm-1.159-7.759,2.931,6.239,6.845.861a1.129,1.129,0,0,1,.583,1.99l-4.981,4.672,1.3,6.777a1.127,1.127,0,0,1-1.65,1.2h0l-6.045-3.328L71.582,31.92a1.127,1.127,0,0,1-1.651-1.2l1.3-6.777-5.033-4.72a1.127,1.127,0,0,1,.636-1.94v0l6.845-.861,2.931-6.239a1.125,1.125,0,0,1,2.039,0Zm10.922-.235A16.889,16.889,0,1,1,77.626,5,16.836,16.836,0,0,1,89.568,9.946Zm-45.3,34.23A12.136,12.136,0,1,0,35,64.875q.352.006.7.019a12.136,12.136,0,0,0,8.565-20.718ZM35.652,67.154q-.372,0-.74-.021c-.149,0-.3,0-.448,0A29,29,0,0,0,5.485,95H63.443A29,29,0,0,0,35.652,67.154Z"/><text x="0" y="115" fill="#000000" font-size="5px" font-weight="bold" font-family="'Helvetica Neue', Helvetica, Arial-Unicode, Arial, Sans-serif">Created by icon 5</text><text x="0" y="120" fill="#000000" font-size="5px" font-weight="bold" font-family="'Helvetica Neue', Helvetica, Arial-Unicode, Arial, Sans-serif">from the Noun Project</text></svg>