<svg xmlns="http://www.w3.org/2000/svg" viewBox="0 0 64 80" x="0px" y="0px"><title>logistics, time, delivery, box, stopwatch</title><g data-name="Box time delivery"><path d="M27,44H2V6H16V17a1,1,0,0,0,1,1H31a1,1,0,0,0,1-1V6H46V17a1,1,0,0,0,2,0V5a1,1,0,0,0-1-1H1A1,1,0,0,0,0,5V45a1,1,0,0,0,1,1H27a1,1,0,0,0,0-2ZM30,6V16H18V6ZM16,40a1,1,0,0,1,0,2H5a1,1,0,0,1,0-2Zm9-2H5a1,1,0,0,1,0-2H25a1,1,0,0,1,0,2Zm22-4A11,11,0,1,0,58,45,11.013,11.013,0,0,0,47,34Zm0,20a9,9,0,1,1,9-9A9.01,9.01,0,0,1,47,54ZM63.707,34.293l-5-5a1.029,1.029,0,0,0-1.414,0l-2.758,2.758A14.9,14.9,0,0,0,51,30.558V27h2a1,1,0,0,0,1-1V21a1,1,0,0,0-1-1H41a1,1,0,0,0-1,1v5a1,1,0,0,0,1,1h2v3.558a14.861,14.861,0,0,0-3.535,1.493l-2.758-2.758a1,1,0,0,0-1.414,0l-5,5a1,1,0,0,0,0,1.414l3.074,3.074a15,15,0,1,0,27.266,0l3.074-3.074A1,1,0,0,0,63.707,34.293ZM42,22H52v3H42Zm3,8.132V27h4v3.132a16.062,16.062,0,0,0-4,0ZM34.354,36.939,32.414,35,36,31.414l1.77,1.77c-.059.045-.112.1-.169.143A15.844,15.844,0,0,0,34.354,36.939ZM47,58A13,13,0,1,1,60,45,13.015,13.015,0,0,1,47,58ZM59.646,36.939a16.069,16.069,0,0,0-3.416-3.755L58,31.414,61.586,35ZM51,45a1,1,0,0,1-1,1H47a1,1,0,0,1-1-1V42a1,1,0,0,1,2,0v2h2A1,1,0,0,1,51,45Zm-5-6V38a1,1,0,0,1,2,0v1a1,1,0,0,1-2,0Zm-4,6a1,1,0,0,1-1,1H40a1,1,0,0,1,0-2h1A1,1,0,0,1,42,45Zm6,6v1a1,1,0,0,1-2,0V51a1,1,0,0,1,2,0Zm7-6a1,1,0,0,1-1,1H53a1,1,0,0,1,0-2h1A1,1,0,0,1,55,45Z"/></g><text x="0" y="79" fill="#000000" font-size="5px" font-weight="bold" font-family="'Helvetica Neue', Helvetica, Arial-Unicode, Arial, Sans-serif">Created by Kmg Design</text><text x="0" y="84" fill="#000000" font-size="5px" font-weight="bold" font-family="'Helvetica Neue', Helvetica, Arial-Unicode, Arial, Sans-serif">from the Noun Project</text></svg>