<svg xmlns="http://www.w3.org/2000/svg" xmlns:xlink="http://www.w3.org/1999/xlink" version="1.1" x="0px" y="0px" viewBox="0 0 100 125" style="enable-background:new 0 0 100 100;" xml:space="preserve"><path d="M11.6,61.2c-0.2,0-0.3,0.1-0.5,0.1c-0.9,0-1.7-0.6-1.9-1.5C8.4,56.5,8,53.1,8,49.7c0-1.1,0.9-2,2-2c1.1,0,2,0.9,2,2  c0,3.1,0.4,6.1,1.1,9.1C13.4,59.9,12.7,61,11.6,61.2z M10.7,42.1c0.2,0,0.3,0.1,0.5,0.1c0.9,0,1.7-0.6,1.9-1.5  c0.7-3,1.8-5.8,3.2-8.6c0.5-1,0.1-2.2-0.8-2.7c-1-0.5-2.2-0.1-2.7,0.8c-1.6,3-2.8,6.2-3.6,9.5C8.9,40.7,9.6,41.8,10.7,42.1z   M20,25.2c0.6,0,1.1-0.2,1.5-0.7c2-2.3,4.3-4.3,6.9-6.1c0.9-0.6,1.1-1.9,0.5-2.8c-0.6-0.9-1.9-1.1-2.8-0.5c-2.8,1.9-5.3,4.2-7.6,6.7  c-0.7,0.8-0.7,2.1,0.2,2.8C19.1,25,19.6,25.2,20,25.2z M54.5,12c3,0.4,6,1.1,8.9,2.2c0.2,0.1,0.5,0.1,0.7,0.1c0.8,0,1.6-0.5,1.9-1.3  c0.4-1-0.1-2.2-1.2-2.6c-3.2-1.2-6.5-2-9.8-2.4c-1.1-0.1-2.1,0.7-2.2,1.7C52.7,10.9,53.4,11.9,54.5,12z M35.8,14.3  c0.2,0,0.5,0,0.7-0.1c2.9-1.1,5.8-1.8,8.9-2.2c1.1-0.1,1.9-1.1,1.7-2.2C47,8.7,46,7.9,44.9,8c-3.4,0.4-6.7,1.2-9.8,2.4  c-1,0.4-1.6,1.5-1.2,2.6C34.2,13.8,35,14.3,35.8,14.3z M86.9,40.6c0.2,0.9,1,1.5,1.9,1.5c0.2,0,0.3,0,0.5-0.1  c1.1-0.3,1.7-1.4,1.5-2.4c-0.8-3.3-2-6.5-3.6-9.5c-0.5-1-1.7-1.4-2.7-0.8S83.1,31,83.6,32C85.1,34.7,86.2,37.6,86.9,40.6z   M71.5,18.4c2.5,1.7,4.8,3.8,6.9,6.1c0.4,0.4,0.9,0.7,1.5,0.7c0.5,0,0.9-0.2,1.3-0.5c0.8-0.7,0.9-2,0.2-2.8  c-2.2-2.5-4.8-4.8-7.6-6.7c-0.9-0.6-2.2-0.4-2.8,0.5C70.4,16.5,70.6,17.8,71.5,18.4z M36.5,85.3c-2.9-1.1-5.6-2.5-8.1-4.3  c-0.9-0.6-2.2-0.4-2.8,0.5c-0.6,0.9-0.4,2.2,0.5,2.8c2.8,1.9,5.8,3.5,9,4.7c0.2,0.1,0.5,0.1,0.7,0.1c0.8,0,1.6-0.5,1.9-1.3  C38,86.8,37.5,85.6,36.5,85.3z M90,47.7C90,47.7,90,47.7,90,47.7c-1.1,0-2,0.9-2,2c0,0,0,0.1,0,0.1c0,3.1-0.4,6.1-1.1,9.1  c-0.3,1.1,0.4,2.2,1.5,2.4c0.2,0,0.3,0.1,0.5,0.1c0.9,0,1.7-0.6,1.9-1.5c0.8-3.3,1.2-6.6,1.2-10.1c0,0,0-0.1,0-0.1  C92,48.5,91.1,47.7,90,47.7z M54.5,87.5c-1.5,0.2-3,0.3-4.6,0.3c-1.5,0-3-0.1-4.5-0.3c-1.1-0.1-2.1,0.6-2.2,1.7  c-0.1,1.1,0.6,2.1,1.7,2.2c1.7,0.2,3.3,0.3,5.1,0.3c1.7,0,3.4-0.1,5-0.3c1.1-0.1,1.9-1.1,1.7-2.2C56.6,88.1,55.6,87.3,54.5,87.5z   M16.3,67.4c-0.5-1-1.7-1.4-2.7-0.8c-1,0.5-1.4,1.7-0.8,2.7c1.6,3,3.5,5.8,5.8,8.3c0.4,0.4,0.9,0.7,1.5,0.7c0.5,0,0.9-0.2,1.3-0.5  c0.8-0.7,0.9-2,0.2-2.8C19.5,72.6,17.8,70.1,16.3,67.4z M64.8,84.7c-0.5,0.2-0.9,0.4-1.4,0.6c-1,0.4-1.6,1.5-1.2,2.6  c0.3,0.8,1.1,1.3,1.9,1.3c0.2,0,0.5,0,0.7-0.1c0.9-0.3,1.8-0.7,2.7-1.1C66.5,87,65.6,85.9,64.8,84.7z M50,85.7c4.8,0,9.5-1,13.9-2.8  c-0.6-1.2-0.9-2.5-1.2-3.9c-4,1.7-8.3,2.6-12.7,2.6c0,0,0,0-0.1,0c-8.5,0-16.6-3.4-22.6-9.4c-6-6.1-9.3-14.1-9.3-22.6  s3.4-16.6,9.4-22.6c6-6,14.1-9.3,22.6-9.3c0,0,0,0,0.1,0c8.5,0,16.6,3.4,22.6,9.4c6,6.1,9.3,14.1,9.3,22.6c0,4.2-0.8,8.3-2.4,12.1  c1.4,0.2,2.7,0.6,3.9,1.1c1.6-4.1,2.5-8.6,2.5-13.2c0-9.6-3.7-18.7-10.5-25.5S59.7,13.7,50.1,13.7c0,0,0,0-0.1,0  c-9.6,0-18.6,3.7-25.4,10.5C17.8,31,14,40,14,49.6c0,9.6,3.7,18.7,10.5,25.5S40.3,85.7,50,85.7C50,85.7,50,85.7,50,85.7z M90,76.7  c0,6.9-5.6,12.5-12.5,12.5S65,83.6,65,76.7s5.6-12.5,12.5-12.5S90,69.8,90,76.7z M85,74.9H74.8l2.2-2.2c0.8-0.8,0.8-2,0-2.8  c-0.4-0.4-0.9-0.6-1.4-0.6s-1,0.2-1.4,0.6l-5.7,5.7c0,0,0,0,0,0c-0.4,0.4-0.5,0.8-0.6,1.3c0,0.1,0,0.3,0,0.4c0,0.4,0.2,0.7,0.5,1.1  c0,0,0.1,0.1,0.1,0.1l5.6,5.6c0.8,0.8,2,0.8,2.8,0c0.8-0.8,0.8-2,0-2.8l-2.2-2.2H85c1.1,0,2-0.9,2-2S86.1,74.9,85,74.9z M53.5,36.7  c1.4,0,2.8,1.2,4,3.2c0.9,1.6,3,2.1,4.6,1.2c1.6-0.9,2.1-3,1.2-4.6c-2.5-4.2-5.9-6.5-9.8-6.5c-5.6,0-10.3,5.1-12.2,12.5h-1.8  c-1.8,0-3.3,1.5-3.3,3.3s1.5,3.3,3.3,3.3h0.9c0,0.3,0,0.6,0,0.8c0,0.3,0,0.6,0,0.8h-0.9c-1.8,0-3.3,1.5-3.3,3.3s1.5,3.3,3.3,3.3h1.8  C43.3,64.9,47.9,70,53.5,70c3.9,0,7.4-2.3,9.8-6.6c0.9-1.6,0.3-3.6-1.3-4.5c-1.6-0.9-3.6-0.3-4.5,1.3c-1.2,2.1-2.5,3.2-4,3.2  c-1.9,0-4-2.3-5.2-5.8h8c1.8,0,3.3-1.5,3.3-3.3s-1.5-3.3-3.3-3.3h-9.1c0-0.3,0-0.6,0-0.8c0-0.3,0-0.6,0-0.8h9.1  c1.8,0,3.3-1.5,3.3-3.3s-1.5-3.3-3.3-3.3h-8C49.6,38.9,51.6,36.7,53.5,36.7z"/><text x="0" y="115" fill="#000000" font-size="5px" font-weight="bold" font-family="'Helvetica Neue', Helvetica, Arial-Unicode, Arial, Sans-serif">Created by Pravin Unagar</text><text x="0" y="120" fill="#000000" font-size="5px" font-weight="bold" font-family="'Helvetica Neue', Helvetica, Arial-Unicode, Arial, Sans-serif">from the Noun Project</text></svg>