<svg xmlns="http://www.w3.org/2000/svg" viewBox="0 0 48 60" x="0px" y="0px"><path d="M35.82,20.12c1.91-1.25,3.17-3.41,3.17-5.85,0-3.86-3.14-7-7-7s-7,3.14-7,7c0,2.45,1.27,4.61,3.18,5.86-.94,.32-1.85,.76-2.7,1.31-.46,.3-.59,.92-.29,1.38,.3,.46,.92,.59,1.39,.29,1.62-1.06,3.5-1.63,5.43-1.63,5.51,0,10,4.55,10,10.15,0,.53-.05,1.08-.15,1.69-.09,.54,.28,1.06,.82,1.15,.06,0,.11,.01,.17,.01,.48,0,.9-.35,.99-.84,.12-.72,.18-1.38,.18-2.02,0-5.35-3.44-9.89-8.19-11.51Zm-3.83-.85c-2.76,0-5-2.24-5-5s2.24-5,5-5,5,2.24,5,5-2.24,5-5,5Z"/><path d="M16,21.48c1.94,0,3.82,.56,5.43,1.63,.46,.3,1.08,.18,1.39-.29,.3-.46,.18-1.08-.29-1.38-.85-.56-1.75-.99-2.7-1.31,1.91-1.25,3.18-3.41,3.18-5.86,0-3.86-3.14-7-7-7s-7,3.14-7,7c0,2.45,1.27,4.6,3.17,5.85-4.75,1.62-8.19,6.16-8.19,11.51,0,.64,.06,1.3,.18,2.02,.08,.49,.5,.84,.99,.84,.05,0,.11,0,.17-.01,.54-.09,.91-.61,.82-1.15-.1-.61-.15-1.17-.15-1.69,0-5.59,4.49-10.15,10-10.15Zm-4.99-7.21c0-2.76,2.24-5,5-5s5,2.24,5,5-2.24,5-5,5-5-2.24-5-5Z"/><path d="M32.67,27H15.33c-.63,0-1.22,.29-1.6,.8s-.5,1.14-.33,1.75l1.43,5c.24,.85,1.03,1.45,1.92,1.45h14.49c.89,0,1.68-.6,1.92-1.45l1.43-5c.17-.61,.06-1.25-.33-1.75s-.96-.8-1.6-.8Zm-1.43,7h-14.49l-1.43-5h17.35l-1.43,5Z"/><path d="M32,38c-.55,0-1,.45-1,1v2.91c0,.55,.45,1,1,1s1-.45,1-1v-2.91c0-.55-.45-1-1-1Z"/><path d="M16,38c-.55,0-1,.45-1,1v2.91c0,.55,.45,1,1,1s1-.45,1-1v-2.91c0-.55-.45-1-1-1Z"/><text x="0" y="63" fill="#000000" font-size="5px" font-weight="bold" font-family="'Helvetica Neue', Helvetica, Arial-Unicode, Arial, Sans-serif">Created by Daniel T.</text><text x="0" y="68" fill="#000000" font-size="5px" font-weight="bold" font-family="'Helvetica Neue', Helvetica, Arial-Unicode, Arial, Sans-serif">from the Noun Project</text></svg>