<svg xmlns="http://www.w3.org/2000/svg" xmlns:xlink="http://www.w3.org/1999/xlink" xmlns:xodm="http://www.corel.com/coreldraw/odm/2003" xml:space="preserve" version="1.1" style="shape-rendering:geometricPrecision;text-rendering:geometricPrecision;image-rendering:optimizeQuality;" viewBox="0 0 846.66 1058.325" x="0px" y="0px" fill-rule="evenodd" clip-rule="evenodd"><defs><style type="text/css">
   
    .fil0 {fill:black;fill-rule:nonzero}
   
  </style></defs><g><path class="fil0" d="M176.35 427.11l24.37 -113.54 -0.18 -0.08c-25.78,-11.27 -48.12,-30.47 -63.11,-55.88 -15,-25.4 -21.02,-54.23 -18.45,-82.24 2.57,-28.02 13.75,-55.25 33.14,-77.5 19.37,-22.27 44.83,-37.08 72.22,-43.47 27.39,-6.37 56.76,-4.35 83.98,7.03 27.25,11.39 49.34,30.9 64.03,54.91 13.7,22.36 21,48.65 20.12,75.92l123.32 39.22c6.89,2.2 12.98,5.41 18.23,9.64 5.25,4.21 9.69,9.48 13.31,15.76l173.41 300.35c7.75,13.37 9.31,28.66 5.61,42.49 -3.7,13.85 -12.7,26.31 -26.06,34.03l-268.65 155.06c-13.18,7.3 -28.09,8.73 -41.61,5.11 -13.84,-3.7 -26.3,-12.7 -34.01,-26.06 -55.41,-101.04 -119.5,-200.04 -173.92,-301.29 -3.33,-5.97 -5.5,-12.13 -6.51,-18.49 -1.06,-6.72 -0.85,-13.57 0.65,-20.51l0.11 -0.46zm29.81 -138.93l18.23 -84.93 1.42 -5.25c4.3,-13.71 13.56,-24.7 25.25,-31.47 11.66,-6.77 25.77,-9.35 39.81,-6.34l5.26 1.42 70.98 22.58c-0.64,-19.65 -6.45,-38.43 -16.38,-54.65 -11.95,-19.53 -29.95,-35.41 -52.13,-44.69 -22.22,-9.29 -46.17,-10.94 -68.5,-5.75 -22.31,5.2 -43.06,17.27 -58.86,35.41 -15.85,18.14 -24.97,40.33 -27.06,63.14 -2.1,22.81 2.83,46.32 15.07,67.06 11.35,19.23 27.83,34.1 46.91,43.47zm72.69 34.81c-18.23,3.16 -36.53,2.53 -53.91,-1.45l-23.9 111.39c-0.85,3.95 -1,7.7 -0.45,11.19 0.53,3.38 1.71,6.71 3.51,9.99 60.01,96.01 117.34,202.98 174.27,301.78 4.24,6.9 10.87,11.57 18.2,13.53 7.31,1.96 15.34,1.26 22.42,-2.51l268.6 -155.08c7.3,-4.22 12.23,-11.05 14.26,-18.65 2.03,-7.6 1.19,-15.98 -3.01,-23.26l-173.43 -300.44c-1.98,-3.44 -4.42,-6.33 -7.27,-8.62 -2.85,-2.29 -6.19,-4.05 -9.99,-5.26l-219.66 -69.87 -2.88 -0.74c-7.72,-1.65 -15.47,-0.24 -21.85,3.46 -6.36,3.68 -11.42,9.69 -13.79,17.18l-0.79 2.93 -18.92 88.19c12.67,2.93 25.95,3.68 39.27,1.98 -0.94,-7.21 -0.43,-14.47 1.41,-21.36 3.65,-13.62 12.51,-25.88 25.69,-33.49l0.19 -0.11c13.16,-7.53 28.14,-9.06 41.7,-5.44 13.62,3.65 25.89,12.52 33.5,25.7l0.43 0.81c7.25,13.02 8.67,27.74 5.1,41.06 -3.64,13.63 -12.52,25.89 -25.7,33.5l-0.89 0.47c-13,7.21 -27.69,8.62 -40.99,5.07 -12.29,-3.29 -23.47,-10.84 -31.12,-21.95zm53.13 -60.16c-7.38,-1.97 -15.53,-1.14 -22.63,2.96 -7.14,4.12 -11.94,10.76 -13.91,18.12 -1.9,7.09 -1.2,14.9 2.47,21.79l0.92 1.56c4.13,6.72 10.57,11.28 17.68,13.18 7.08,1.9 14.88,1.21 21.79,-2.47l1.57 -0.92c6.72,-4.13 11.28,-10.56 13.18,-17.69 1.92,-7.18 1.2,-15.11 -2.61,-22.08l-0.34 -0.55c-4.11,-7.12 -10.76,-11.93 -18.12,-13.9zm143.59 180.99c4.6,5.28 4.04,13.3 -1.24,17.9 -5.28,4.6 -13.3,4.04 -17.9,-1.24 -4.99,-5.73 -11.74,-9.2 -18.77,-10.14 -7.05,-0.95 -14.45,0.59 -20.79,4.79 -6.3,4.23 -10.59,10.48 -12.42,17.33 -1.84,6.89 -1.28,14.44 2.08,21.24 3.38,6.81 9.15,11.85 16.67,14.39 7.95,2.69 18,2.79 29.56,-0.36 16.62,-4.52 31.74,-4.15 44.34,0.12 14.04,4.76 24.84,14.25 31.26,27.21 6.19,12.52 7.24,26.36 3.86,38.99 -2.61,9.72 -7.84,18.75 -15.36,25.91l8.88 15.4c3.47,6.05 1.39,13.79 -4.66,17.26 -6.05,3.47 -13.79,1.39 -17.26,-4.66l-8.77 -15.2c-7.8,2.41 -15.97,3.05 -23.91,1.98 -13.01,-1.75 -25.4,-8.08 -34.54,-18.59 -4.6,-5.28 -4.04,-13.3 1.24,-17.9 5.28,-4.6 13.3,-4.04 17.9,1.24 5,5.74 11.74,9.21 18.78,10.15 7.01,0.94 14.42,-0.61 20.76,-4.83 6.32,-4.21 10.61,-10.46 12.44,-17.3 1.84,-6.89 1.28,-14.44 -2.08,-21.23 -3.38,-6.82 -9.15,-11.86 -16.68,-14.41 -7.94,-2.69 -18,-2.79 -29.56,0.36 -16.61,4.52 -31.72,4.16 -44.34,-0.12 -14.02,-4.74 -24.82,-14.23 -31.25,-27.19 -6.19,-12.52 -7.24,-26.37 -3.86,-39 2.61,-9.73 7.83,-18.75 15.36,-25.92l-8.89 -15.4c-3.47,-6.05 -1.39,-13.79 4.66,-17.26 6.05,-3.47 13.79,-1.39 17.26,4.66l8.78 15.22c7.8,-2.42 15.97,-3.06 23.92,-1.98 12.99,1.75 25.39,8.08 34.53,18.58z"/></g><text x="0" y="861.66" fill="#000000" font-size="5px" font-weight="bold" font-family="'Helvetica Neue', Helvetica, Arial-Unicode, Arial, Sans-serif">Created by Yuniarti Pahlevie</text><text x="0" y="866.66" fill="#000000" font-size="5px" font-weight="bold" font-family="'Helvetica Neue', Helvetica, Arial-Unicode, Arial, Sans-serif">from the Noun Project</text></svg>