<svg xmlns="http://www.w3.org/2000/svg" xmlns:xlink="http://www.w3.org/1999/xlink" version="1.1" x="0px" y="0px" viewBox="0 0 96 120" style="enable-background:new 0 0 96 96;" xml:space="preserve"><style type="text/css">
	.st0{fill-rule:evenodd;clip-rule:evenodd;}
</style><path class="st0" d="M79.4240494,62.6224785L67.4710388,75.9778366c-0.2702789,0.302948-0.4169846,0.5236969-1.0051804,0.7248535  c-0.6508942,0.2065582-1.37957,0.3270187-2.1649094,0.3565445l-23.008194,0.8039246  c-1.0247803,0.0347595-2.0511398,0.508667-2.4849815,0.7872467c-1.766613,1.1342621-3.4227448,2.426918-5.1097183,3.6744995  l-7.7490597-10.5399246l2.5965919-2.2402115c0.9368153-0.8543091,1.9799061-1.4378281,3.0887146-1.7322998  c1.5979023-0.3993835,2.8237286-0.6027527,3.7359219-0.6182327l22.1355705-0.0809631  c1.031353-0.012085,1.9162712,0.2479172,2.3669357,0.7043457c0.2445717,0.2463684,0.3675041,0.5614014,0.3782997,0.9538345  c-0.0123367,0.2268829-0.0120316,0.3953781-0.1370125,0.5253448c-0.4879684,0.5045166-2.0545349,0.5149689-2.8075409,0.5180588  l-9.0743561,0.0828629c-1.1298943,0.0112152-1.1222916,1.727005,0.0159492,1.7217941l9.0694733-0.0825424  c1.3856277-0.0105591,3.8374405-0.0349808,4.4984207-1.7717438c0.884613-0.0828705,1.7854271-0.4409027,2.6826553-1.0677872  l13.5394363-9.2430992c0.7948532-0.1464806,1.4336777,0.0533829,1.766449,0.5614014  C80.2438126,60.6852112,80.0938797,61.7064743,79.4240494,62.6224785L79.4240494,62.6224785z M32.8386803,85.7807999  c0.4519501-0.3323593,0.549427-0.9696808,0.2170143-1.4223022l-8.8019657-11.9726181  c-0.3345718-0.4545059-0.9712734-0.5484238-1.4229145-0.2169952l-6.4678917,4.7558594  c-0.4495916,0.3312302-0.5479183,0.9727631-0.2169933,1.4223557l8.802,11.9726028  c0.3312874,0.449791,0.9725246,0.548439,1.4231873,0.2169571L32.8386803,85.7807999L32.8386803,85.7807999z M81.2445145,59.0718689  c-0.7612839-1.1622467-2.1624069-1.6341553-3.7472458-1.2622795c-0.1037292,0.0244217-0.2015686,0.0673714-0.2891541,0.1259613  l-13.6880455,9.3446388c-0.5788383,0.4048309-1.119915,0.6509476-1.6377144,0.7422867  c-0.5135155-2.1366196-2.8172874-2.6444778-4.3931236-2.6294556L35.352787,65.4723892  c-1.0567169,0.0189819-2.409935,0.2375717-4.1485691,0.673317c-1.3868618,0.3666153-2.6687546,1.0795441-3.8102245,2.117897  l-2.6762848,2.3090286c-0.9007072-0.4768448-2.0327244-0.4338913-2.9072475,0.2084656l-6.4675837,4.7558441  c-1.216608,0.8947525-1.4784737,2.6141357-0.5843897,3.8313828l8.8023281,11.9706955  c0.8947926,1.2184219,2.6156807,1.4784164,3.8303471,0.5838776l6.4675102-4.7542419  c1.0892677-0.8008347,1.4106293-2.2610397,0.8251686-3.4319382l3.7320938-2.7585754l1.322319-0.8779678  c0.5352173-0.3082962,1.1358299-0.499382,1.612709-0.5168228l23.0116539-0.8039017  c0.8730927-0.0311203,1.9577866-0.1956558,2.6753464-0.4529266c0.7606964-0.2754745,1.3315201-0.6784744,1.7439651-1.2312927  l11.9524078-13.3550529c0.0170746-0.0189781,0.0335312-0.0379944,0.0490646-0.0585175  C81.9086685,62.169857,82.0896606,60.3616905,81.2445145,59.0718689L81.2445145,59.0718689z M46.5582085,8.9951725  c0.8125076,0,1.4738503,0.6607246,1.4738503,1.4735928c0,0.8129597-0.6613426,1.4741917-1.4738503,1.4741917  c-0.8125038,0-1.4738464-0.661232-1.4738464-1.4741917C45.084362,9.6558971,45.7457047,8.9951725,46.5582085,8.9951725  L46.5582085,8.9951725z M46.5582085,13.6647701c1.761879,0,3.1955528-1.4343452,3.1955528-3.1960049  c0-1.7626572-1.4336739-3.1957507-3.1955528-3.1957507c-1.7623291,0-3.195694,1.4330935-3.195694,3.1957507  C43.3625145,12.2304249,44.7958794,13.6647701,46.5582085,13.6647701L46.5582085,13.6647701z M46.5582085,5.2666726  c-4.8896751,0-8.8678474,3.9794965-8.8678474,8.8683567c0,1.809761,0.5450516,3.4920197,1.4780045,4.8953362  c3.1954422-5.8040276,11.5841408-5.8040276,14.779583,0c0.9330597-1.4033165,1.4780006-3.0855751,1.4780006-4.8953362  C55.4259491,9.2461691,51.4477768,5.2666726,46.5582085,5.2666726L46.5582085,5.2666726z M40.3740311,20.4820938  c1.044632-2.4676552,3.4679413-4.0932827,6.1841774-4.0932827c2.7161865,0,5.1394424,1.6256275,6.1841278,4.0932827  C49.2940254,23.8429985,43.8220673,23.8428535,40.3740311,20.4820938L40.3740311,20.4820938z M46.5582085,24.7249451  c5.8390503,0,10.5898628-4.749218,10.5898628-10.5899162c0-5.8394108-4.7508125-10.5897522-10.5898628-10.5897522  c-5.8392105,0-10.5899124,4.7503414-10.5899124,10.5897522C35.9682961,19.9757271,40.718998,24.7249451,46.5582085,24.7249451  L46.5582085,24.7249451z M28.3207741,20.2908115c0.998127-1.2379646,2.1278763-2.3658085,3.3575115-3.3560238  c0.3704243-0.2996063,0.9124851-0.2395287,1.2107105,0.1292992c0.2979012,0.3719864,0.2394218,0.9125023-0.1308975,1.2119999  c-1.1342297,0.9127007-2.1763382,1.9545937-3.0976772,3.0960274c-0.3008766,0.3723316-0.8423901,0.4258213-1.2107105,0.1293545  C28.0797024,21.2016621,28.0217838,20.661129,28.3207741,20.2908115L28.3207741,20.2908115z M23.0812855,31.8209362  c0.2464237-1.5687981,0.6597443-3.1115589,1.2296352-4.5838089c0.1717949-0.4443836,0.6701965-0.6647892,1.1139641-0.4924316  c0.4434586,0.1720486,0.6638622,0.6698875,0.4921227,1.1138535c-0.5256557,1.3568859-0.9074039,2.7811069-1.1344852,4.2293339  c-0.0746288,0.4754486-0.5193214,0.7905312-0.9839382,0.7179146C23.3285809,32.7317848,23.0075264,32.2909393,23.0812855,31.8209362  L23.0812855,31.8209362z M43.4751549,58.2695045c-1.4495659-0.2273903-2.8728065-0.6093903-4.2302551-1.1347389  c-0.4437675-0.1705055-0.9421692,0.0483589-1.1138535,0.4924316c-0.171524,0.4426994,0.0486069,0.9418068,0.4920654,1.1142197  c1.4722519,0.5698891,3.0147018,0.9833183,4.5854073,1.2293625c0.0448532,0.0070038,0.089798,0.0104523,0.1343994,0.0104523  C44.3910332,59.9812317,44.5171013,58.4336815,43.4751549,58.2695045L43.4751549,58.2695045z M56.3083496,57.6290512  c-0.1714706-0.444294-0.6696167-0.6647911-1.1132927-0.4942856c-1.3679352,0.5287933-2.7911568,0.909256-4.2308578,1.1331978  c-0.4700012,0.0740128-0.7916183,0.5130081-0.7182236,0.9829597c0.0740662,0.4756088,0.5163994,0.7890434,0.9829559,0.718277  c1.5605621-0.2429771,3.1035767-0.6544075,4.5856628-1.2277832C56.2583618,58.5709648,56.4791107,58.0730705,56.3083496,57.6290512  L56.3083496,57.6290512z M68.5222397,27.857008c-0.1710663-0.4443302,0.0496445-0.9418602,0.4934692-1.114254  c0.4436569-0.1704159,0.9422226,0.0499897,1.1132889,0.4943733c0.5717773,1.482338,0.9845352,3.0255165,1.2271118,4.5854053  c0.0811081,0.5206642-0.3290329,0.9936981-0.8514938,0.9936981c-0.4173889,0-0.7836609-0.3033066-0.8497391-0.7283478  C69.4309845,30.6482391,69.0498581,29.2243443,68.5222397,27.857008L68.5222397,27.857008z M61.551178,17.0622368  c0.2986259-0.3684654,0.841011-0.4270554,1.2108192-0.1291008c1.2366219,0.9984913,2.365696,2.1282024,3.3559685,3.3576756  c0.4582672,0.5702,0.0319901,1.4016857-0.6702499,1.4016857c-0.2517014,0-0.5009079-0.1100674-0.6711044-0.3203831  c-0.913063-1.1347923-1.9552078-2.1763401-3.0963898-3.0976238C61.310215,17.9749928,61.2526588,17.4325714,61.551178,17.0622368  L61.551178,17.0622368z M27.1584187,48.5063934c0.9039021,0.9520035,1.4830456,2.159214,1.6617355,3.4575615h-3.3234711  C25.6751194,50.6656075,26.2544632,49.4583969,27.1584187,48.5063934L27.1584187,48.5063934z M28.8201542,42.6948166  c-0.17869,1.2963371-0.7578335,2.5037079-1.6617355,3.4559479c-0.9042091-0.95224-1.4832993-2.1596107-1.6617355-3.4559479  H28.8201542L28.8201542,42.6948166z M24.5766335,53.6857529h5.1632633c0.475666,0,0.8608971-0.3855972,0.8608971-0.8609009  c0-2.0628052-0.7882271-4.0173645-2.1880627-5.4962921c1.3998356-1.4791451,2.1880627-3.4334831,2.1880627-5.4946594  c0-0.4769897-0.385231-0.8612061-0.8608971-0.8612061h-5.1632633c-0.4754124,0-0.8608971,0.3842163-0.8608971,0.8612061  c0,2.0611763,0.7884808,4.0170021,2.1880074,5.4946594c-1.3995266,1.4789276-2.1880074,3.4334869-2.1880074,5.4962921  C23.7157364,53.3001556,24.1012211,53.6857529,24.5766335,53.6857529L24.5766335,53.6857529z M27.1584187,38.4399719  c-4.9016685,0-8.8892956,3.9878998-8.8892956,8.888588c0,4.9023247,3.987627,8.8883705,8.8892956,8.8883705  c4.9016171,0,8.8892422-3.9860458,8.8892422-8.8883705C36.0476608,42.4278717,32.0600357,38.4399719,27.1584187,38.4399719  L27.1584187,38.4399719z M27.1584187,57.9389801c-5.8511868,0-10.6111088-4.7592888-10.6111088-10.6104202  c0-5.8510933,4.759922-10.6107445,10.6111088-10.6107445c5.8511333,0,10.6113987,4.7596512,10.6113987,10.6107445  C37.7698174,53.1796913,33.009552,57.9389801,27.1584187,57.9389801L27.1584187,57.9389801z M70.5907135,49.7907562  c-0.1176376-1.0793457-2.0265045-1.6053085-3.3079224-1.6012955c-2.2500458,0.0070381-4.9616966-1.0734291-5.039917-3.2993965  c-0.0008888-0.0255661-0.0008888-0.0515289,0.0006523-0.0790558c0.1026649-1.8471413,1.9112434-2.9750366,4.1435814-3.2269592  V40.876564c0-1.133812,1.721817-1.133812,1.721817,0v0.6973953c1.3552322,0.1065292,2.5628052,0.3924904,3.6681137,0.8728371  c0.4361649,0.1894875,0.6364441,0.6955452,0.4469604,1.1328888c-0.1891632,0.4359093-0.6964722,0.6354103-1.1325836,0.4459801  c-1.5691452-0.6814461-4.0493317-1.1030579-5.8125-0.41996c-1.7461815,0.6765099-1.7450027,1.8039551,0.0043716,2.5086975  c0.6091766,0.2324333,1.2815323,0.3513565,1.9988861,0.3529892c2.245903-0.0082207,4.8783493,1.0336723,5.0318909,3.2718315  c0.0028839,0.0410995,0.0028839,0.0844994-0.000618,0.1255455c-0.1527023,1.8728676-1.9822235,2.9742737-4.2045212,3.2149277  v0.7009506c0,1.1333427-1.721817,1.1333427-1.721817,0V53.086647c-1.2856827-0.0998878-2.5169182-0.3892441-3.6763535-0.869751  c-0.4390297-0.1824837-0.6474419-0.6868896-0.4652672-1.125885c0.1821747-0.4393578,0.6859818-0.6477165,1.125267-0.4649048  c1.6800423,0.6977005,4.1386986,1.1168289,5.9159966,0.4215927C70.3399124,50.6310959,70.5474014,50.1421471,70.5907135,49.7907562  L70.5907135,49.7907562z M67.248024,38.4070587c-4.9197235,0-8.9221191,4.0018883-8.9221191,8.9215012  c0,4.9193993,4.0023956,8.9227753,8.9221191,8.9227753c4.9196472,0,8.9221573-4.003376,8.9221573-8.9227753  C76.1701813,42.408947,72.1676712,38.4070587,67.248024,38.4070587L67.248024,38.4070587z M67.248024,57.9735107  c-5.8691521,0-10.6442795-4.7751999-10.6442795-10.6449509c0-5.8684235,4.7751274-10.6432953,10.6442795-10.6432953  c5.8690796,0,10.6439514,4.7748718,10.6439514,10.6432953C77.8919754,53.1983109,73.1171036,57.9735107,67.248024,57.9735107z"/><text x="0" y="111" fill="#000000" font-size="5px" font-weight="bold" font-family="'Helvetica Neue', Helvetica, Arial-Unicode, Arial, Sans-serif">Created by abdul rohman</text><text x="0" y="116" fill="#000000" font-size="5px" font-weight="bold" font-family="'Helvetica Neue', Helvetica, Arial-Unicode, Arial, Sans-serif">from the Noun Project</text></svg>