<svg xmlns="http://www.w3.org/2000/svg" viewBox="0 0 28 35" x="0px" y="0px"><title>icon_90Artboard 1</title><g><circle cx="9.5" cy="4.252" r="2.194" transform="translate(-0.824 2.929) rotate(-16.812)"/><path d="M14.93,20.6a.9.9,0,0,0,.712-1.046c-.289-1.522-1.184-3.938-1.575-5.426a1.224,1.224,0,0,0-1.085-.907l-.157-.012c-.691-.055-1.382-.083-2.074-.122l.276-2.812c.141.068.279.14.42.207.575.279,1.152.555,1.743.8l.14.059a.881.881,0,0,0,.3.066q1.541.056,3.092-.032a.918.918,0,0,0,.847-.729.841.841,0,0,0-.7-1.042c-.934-.1-2.68-.178-2.68-.178L10.883,7.366l-.021-.01a1.278,1.278,0,0,0-.557-.128c-.259,0-2.806.085-2.877.1a1.45,1.45,0,0,0-.966.355L3.916,9.947l-.289.257-.083.217L2.2,13.924a.974.974,0,0,0,.495,1.292c.528.158.947-.3,1.208-.809l1.4-2.564L6.342,10.78l-.054,2.743c0,.015.007.028.007.043s-.006.042-.007.06l.789,5.8-2.985,5.28a.888.888,0,0,0,1.643.663L9.6,20.2A.78.78,0,0,0,9.659,20l.025-.159L9.8,15.924c.825.01,1.719.014,2.537.009.508,1.368,1.065,3.082,1.629,4.194A.9.9,0,0,0,14.93,20.6Z"/><polygon points="21.618 13.277 21.618 17.482 17.413 17.482 17.413 21.686 13.208 21.686 13.208 25.943 25.874 25.943 25.874 13.277 21.618 13.277"/></g><text x="0" y="43" fill="#000000" font-size="5px" font-weight="bold" font-family="'Helvetica Neue', Helvetica, Arial-Unicode, Arial, Sans-serif">Created by Iconographer</text><text x="0" y="48" fill="#000000" font-size="5px" font-weight="bold" font-family="'Helvetica Neue', Helvetica, Arial-Unicode, Arial, Sans-serif">from the Noun Project</text></svg>