<svg xmlns="http://www.w3.org/2000/svg" xmlns:xlink="http://www.w3.org/1999/xlink" version="1.1" x="0px" y="0px" viewBox="0 0 64 80" style="enable-background:new 0 0 64 64;" xml:space="preserve"><g><g><g><path d="M38.33,2.64c-2.09,0.08-4.12,0.73-6.09,1.96C30.76,5.53,29.37,6.8,28,8.49l-3.95,4.91c-0.32,0.42-0.3,1.01,0.07,1.38     l1.28,1.31l-2.42,2.37l-6.25,6.1c-0.7-0.44-1.51-0.69-2.36-0.7c-1.22,0-2.34,0.45-3.19,1.29c-0.86,0.85-1.34,1.96-1.36,3.16     c-0.01,0.85,0.21,1.66,0.64,2.37l-2.94,2.87L0,25.84l2.88-2.81c0.77,0.61,1.73,0.95,2.73,0.96c1.22,0.02,2.34-0.44,3.19-1.28     c1.64-1.6,1.8-4.15,0.46-5.93l9.25-9.02l1.08,1.11c0.23,0.23,0.55,0.34,0.86,0.3c0.32-0.03,0.61-0.21,0.77-0.49     c2.46-4.03,6.65-6.53,11.5-6.85C34.76,1.71,36.7,2,38.33,2.64z"/></g><g><g><rect x="22.16" y="21.3" transform="matrix(0.7146 -0.6996 0.6996 0.7146 -9.6048 23.4567)" width="3.57" height="4.41"/><path d="M55.14,51.16c0,1.09-0.42,2.18-1.25,3c-1.66,1.61-4.32,1.59-5.93-0.06L36.84,42.44l-0.09-0.07l-0.03-0.03l-6.38-6.68      l-0.02-0.03l-0.04-0.05l-6.07-6.35l0.64-0.63l0.02-0.02l0.06-0.05l4.01-3.92l0.7-0.68l6.27,6.27l6.65,6.67l11.37,11.39      C54.74,49.05,55.14,50.11,55.14,51.16z"/><path d="M30.54,47.8c1.46,4,0.42,8.49-2.65,11.41c-2.58,2.49-6.24,3.48-9.67,2.73l7.12-6.83c0.42-0.4,0.43-1.05,0.03-1.47      l-6.55-6.83c-0.19-0.2-0.45-0.32-0.73-0.32c-0.3,0.01-0.55,0.1-0.74,0.29l-7.32,7.01c-0.8-3.6,0.31-7.4,3.05-10.03      c3.04-2.93,7.57-3.77,11.52-2.15c0.38,0.16,0.81,0.08,1.1-0.21l3.8-3.62l5.06,5.3l-3.78,3.61C30.5,46.97,30.39,47.41,30.54,47.8      z"/><path d="M60.71,27.75c-3.08,2.94-7.58,3.78-11.5,2.15c-0.38-0.16-0.81-0.09-1.11,0.2l-4.76,4.57l-5.19-5.2l4.87-4.66      c0.3-0.29,0.4-0.72,0.26-1.11c-1.47-3.99-0.43-8.46,2.63-11.39c2.72-2.61,6.57-3.58,10.14-2.63l-7.31,7.01      c-0.41,0.4-0.42,1.06-0.02,1.47l6.55,6.84c0.19,0.2,0.46,0.32,0.73,0.32c0.29,0,0.55-0.1,0.75-0.29l7.12-6.83      C64.44,21.66,63.29,25.26,60.71,27.75z"/></g></g></g></g><text x="0" y="79" fill="#000000" font-size="5px" font-weight="bold" font-family="'Helvetica Neue', Helvetica, Arial-Unicode, Arial, Sans-serif">Created by The Deserve</text><text x="0" y="84" fill="#000000" font-size="5px" font-weight="bold" font-family="'Helvetica Neue', Helvetica, Arial-Unicode, Arial, Sans-serif">from the Noun Project</text></svg>